<svg width="200" height="54" viewBox="0 0 200 54" fill="none" xmlns="http://www.w3.org/2000/svg">
<g id="Group 1000003081">
<path id="Vector" d="M24.3847 1.04321C31.2959 1.04321 36.5771 2.41241 40.8803 5.1508L37.1639 15.1264C34.0995 13.1052 29.6007 12.062 24.8411 12.062C16.6911 12.062 12.2576 18.0604 12.2576 27.2535C12.2576 37.2291 16.6911 42.2495 24.8411 42.2495C29.8615 42.2495 34.0343 40.8803 37.4247 38.7287L41.4019 48.8998C37.0987 51.9642 30.9699 53.4638 23.8631 53.4638C8.67157 53.4638 0 43.6839 0 27.2535C0 10.8232 8.60637 1.04321 24.3847 1.04321Z" fill="#BFC4D8"/>
<path id="Vector_2" d="M57.9951 40.5543L53.8224 52.8118H42.2168L60.4727 1.63H73.9691L92.551 52.8118H80.9455L76.6423 40.5543H57.9951ZM73.1867 30.7091L67.1883 13.7572L61.3855 30.7091H73.1867Z" fill="#BFC4D8"/>
<path id="Vector_3" d="M124.402 20.0815C124.402 14.67 121.337 11.9316 115.143 11.9316H104.907C99.2184 11.9316 94.6055 7.31868 94.6055 1.63H115.6C129.161 1.63 136.007 9.12798 136.007 20.0815C136.007 31.0351 128.379 38.6635 115.6 38.6635H107.971V52.8118H95.2575V25.1182C95.2575 19.78 99.5851 15.4524 104.923 15.4524H107.971V28.6227H115.143C120.751 28.6227 124.402 25.4931 124.402 20.0815Z" fill="#BFC4D8"/>
<path id="Vector_4" d="M182.982 1.04321C189.894 1.04321 195.175 2.41241 199.478 5.1508L195.762 15.1264C192.697 13.1052 188.198 12.062 183.439 12.062C175.289 12.062 170.855 18.0604 170.855 27.2535C170.855 37.2291 175.289 42.2495 183.439 42.2495C188.459 42.2495 192.632 40.8803 196.022 38.7287L200 48.8998C195.696 51.9642 189.568 53.4638 182.461 53.4638C167.269 53.4638 158.598 43.6839 158.598 27.2535C158.598 10.8232 167.204 1.04321 182.982 1.04321Z" fill="#BFC4D8"/>
<path id="Vector_5" d="M153.284 15.1264V53.7899H139.723V24.719C139.723 19.4215 144.018 15.1183 149.323 15.1183H153.292L153.284 15.1264Z" fill="#BFC4D8"/>
<path id="Vector_6" d="M153.284 0V11.2144H148.492C143.651 11.2144 139.723 7.28607 139.723 2.44499V0H153.284Z" fill="#BFC4D8"/>
</g>
</svg>
