<svg width="32" height="32" viewBox="0 0 32 32" fill="none" xmlns="http://www.w3.org/2000/svg">
<g id="XCircle">
<g id="Group 1000003079">
<circle id="Ellipse 2" cx="15.9996" cy="16" r="11.6364" fill="white"/>
<path id="Vector" d="M15.9092 2.90906C13.338 2.90906 10.8246 3.67149 8.68677 5.09995C6.54893 6.52841 4.88269 8.55873 3.89875 10.9342C2.91481 13.3096 2.65737 15.9235 3.15898 18.4452C3.66058 20.967 4.89871 23.2834 6.7168 25.1014C8.53488 26.9195 10.8513 28.1577 13.373 28.6593C15.8948 29.1609 18.5086 28.9034 20.8841 27.9195C23.2595 26.9356 25.2898 25.2693 26.7183 23.1315C28.1467 20.9936 28.9092 18.4802 28.9092 15.9091C28.9055 12.4624 27.5347 9.15787 25.0976 6.72069C22.6604 4.2835 19.3559 2.9127 15.9092 2.90906ZM20.6167 19.2016C20.7096 19.2945 20.7833 19.4048 20.8336 19.5262C20.8839 19.6476 20.9097 19.7777 20.9097 19.9091C20.9097 20.0405 20.8839 20.1706 20.8336 20.292C20.7833 20.4133 20.7096 20.5236 20.6167 20.6166C20.5238 20.7095 20.4135 20.7832 20.2921 20.8335C20.1707 20.8837 20.0406 20.9096 19.9092 20.9096C19.7778 20.9096 19.6477 20.8837 19.5263 20.8335C19.4049 20.7832 19.2946 20.7095 19.2017 20.6166L15.9092 17.3228L12.6167 20.6166C12.5238 20.7095 12.4135 20.7832 12.2921 20.8335C12.1707 20.8837 12.0406 20.9096 11.9092 20.9096C11.7778 20.9096 11.6477 20.8837 11.5263 20.8335C11.4049 20.7832 11.2946 20.7095 11.2017 20.6166C11.1088 20.5236 11.0351 20.4133 10.9848 20.292C10.9345 20.1706 10.9086 20.0405 10.9086 19.9091C10.9086 19.7777 10.9345 19.6476 10.9848 19.5262C11.0351 19.4048 11.1088 19.2945 11.2017 19.2016L14.4954 15.9091L11.2017 12.6166C11.014 12.4289 10.9086 12.1744 10.9086 11.9091C10.9086 11.6437 11.014 11.3892 11.2017 11.2016C11.3893 11.0139 11.6438 10.9085 11.9092 10.9085C12.1745 10.9085 12.429 11.0139 12.6167 11.2016L15.9092 14.4953L19.2017 11.2016C19.2946 11.1086 19.4049 11.0349 19.5263 10.9847C19.6477 10.9344 19.7778 10.9085 19.9092 10.9085C20.0406 10.9085 20.1707 10.9344 20.2921 10.9847C20.4135 11.0349 20.5238 11.1086 20.6167 11.2016C20.7096 11.2945 20.7833 11.4048 20.8336 11.5262C20.8839 11.6476 20.9097 11.7777 20.9097 11.9091C20.9097 12.0405 20.8839 12.1706 20.8336 12.292C20.7833 12.4133 20.7096 12.5236 20.6167 12.6166L17.3229 15.9091L20.6167 19.2016Z" fill="#7F85A3"/>
</g>
</g>
</svg>
