<svg width="44" height="44" viewBox="0 0 44 44" fill="none" xmlns="http://www.w3.org/2000/svg">
<g id="XCircle">
<g id="Group 1000003079">
<circle id="Ellipse 2" cx="22" cy="22" r="16" fill="white"/>
<path id="Vector" d="M21.875 4C18.3397 4 14.8837 5.04835 11.9442 7.01248C9.00466 8.97661 6.71358 11.7683 5.36066 15.0345C4.00774 18.3008 3.65376 21.8948 4.34347 25.3622C5.03318 28.8297 6.73561 32.0147 9.23547 34.5145C11.7353 37.0144 14.9204 38.7168 18.3878 39.4065C21.8552 40.0962 25.4492 39.7423 28.7155 38.3893C31.9817 37.0364 34.7734 34.7453 36.7375 31.8058C38.7017 28.8663 39.75 25.4103 39.75 21.875C39.745 17.1358 37.8601 12.5921 34.509 9.24099C31.1579 5.88986 26.6142 4.005 21.875 4ZM28.3478 26.4022C28.4756 26.5299 28.5769 26.6816 28.646 26.8485C28.7152 27.0154 28.7508 27.1943 28.7508 27.375C28.7508 27.5557 28.7152 27.7346 28.646 27.9015C28.5769 28.0684 28.4756 28.2201 28.3478 28.3478C28.2201 28.4756 28.0684 28.5769 27.9015 28.646C27.7346 28.7152 27.5557 28.7508 27.375 28.7508C27.1943 28.7508 27.0154 28.7152 26.8485 28.646C26.6816 28.5769 26.5299 28.4756 26.4022 28.3478L21.875 23.8189L17.3478 28.3478C17.2201 28.4756 17.0684 28.5769 16.9015 28.646C16.7346 28.7152 16.5557 28.7508 16.375 28.7508C16.1943 28.7508 16.0154 28.7152 15.8485 28.646C15.6816 28.5769 15.5299 28.4756 15.4022 28.3478C15.2744 28.2201 15.1731 28.0684 15.104 27.9015C15.0348 27.7346 14.9992 27.5557 14.9992 27.375C14.9992 27.1943 15.0348 27.0154 15.104 26.8485C15.1731 26.6816 15.2744 26.5299 15.4022 26.4022L19.9311 21.875L15.4022 17.3478C15.1442 17.0898 14.9992 16.7399 14.9992 16.375C14.9992 16.0101 15.1442 15.6602 15.4022 15.4022C15.6602 15.1442 16.0101 14.9992 16.375 14.9992C16.7399 14.9992 17.0898 15.1442 17.3478 15.4022L21.875 19.9311L26.4022 15.4022C26.5299 15.2744 26.6816 15.1731 26.8485 15.104C27.0154 15.0348 27.1943 14.9992 27.375 14.9992C27.5557 14.9992 27.7346 15.0348 27.9015 15.104C28.0684 15.1731 28.2201 15.2744 28.3478 15.4022C28.4756 15.5299 28.5769 15.6816 28.646 15.8485C28.7152 16.0154 28.7508 16.1943 28.7508 16.375C28.7508 16.5557 28.7152 16.7346 28.646 16.9015C28.5769 17.0684 28.4756 17.2201 28.3478 17.3478L23.8189 21.875L28.3478 26.4022Z" fill="#BF92FB"/>
</g>
</g>
</svg>
